<svg width="150" height="276" viewBox="0 0 150 276" fill="none" xmlns="http://www.w3.org/2000/svg">
<path d="M55.3053 257.259C70.1974 257.428 117.112 247.672 117.602 204.721C118.213 151.032 83.3576 150.187 73.5372 150.523C63.7169 150.859 31.9071 150.049 32.7205 197.489C32.6063 207.511 54.7377 206.092 72.9254 204.212" stroke="white" stroke-width="36" stroke-linecap="round"/>
<path d="M62.5481 4.68048C50.284 -1.57423 42.3926 4.57496 39.9799 8.4314C36.6063 4.5319 6.71416 -3.46875 4.82996 4.65447C3.42627 10.7062 3.08525 24.3038 13.7844 36.4598C10.842 38.6765 5.07276 43.7176 5.53457 46.1481C6.11183 49.1861 12.9076 56.1327 14.3537 57.146C15.7998 58.1592 3.50044 65.9652 3.78754 70.8837C4.01722 74.8184 12.27 79.9527 16.3677 82.0279C15.5458 86.8977 14.5672 96.9268 17.2284 98.0852C20.5548 99.5333 30.5368 98.2359 30.5364 98.9592C30.5361 99.6825 31.5425 113.425 36.895 112.994C42.2475 112.562 49.1927 108.949 50.7835 109.962C52.3742 110.976 56.2757 120.525 60.7603 119.948C65.2449 119.371 71.3229 114.167 72.6245 114.746C73.9262 115.325 82.3141 120.247 84.918 119.959C87.522 119.671 93.4575 109.403 94.1808 109.548C94.904 109.693 105.173 113.892 108.5 112.881C111.828 111.87 114.437 99.1416 114.727 98.7078C119.163 99.0956 128.18 99.3504 128.759 97.2676C129.339 95.1848 128.62 86.4664 128.187 82.3676C132.528 79.7175 141.268 73.5784 141.501 70.2224C141.793 66.0275 130.658 57.9217 131.236 57.3433C131.815 56.765 139.775 49.391 139.776 46.3532C139.778 43.3154 132.981 38.5387 131.246 36.3681C141.956 24.2217 141.338 11.0576 139.939 5.00467C138.063 -3.12025 111.636 3.24051 108.259 7.13697C95.9685 -5.45372 88.4417 4.69215 85.8379 4.69098C83.2341 4.68981 81.934 0.494162 75.28 0.057192C68.626 -0.379778 64.7177 5.40474 62.5481 4.68048Z" fill="white"/>
<path d="M77.4412 68.0458C76.0524 68.2766 72.5228 68.3329 70.9315 68.3322C68.3276 68.3669 66.4466 69.6321 66.0115 72.2357C65.5763 74.8394 70.4944 75.4202 71.3616 77.0118C72.2289 78.6034 70.9266 79.1815 68.9006 81.0611C66.8746 82.9407 67.7418 84.5324 68.8986 85.5455C69.824 86.356 73.2388 84.342 74.8306 83.2336C75.8911 83.8127 78.3594 85.029 79.748 85.2611C81.4837 85.5511 82.4979 82.0798 80.7625 81.0665C79.027 80.0531 77.7257 78.7506 76.8582 77.7376C75.9908 76.7246 79.1739 75.2794 81.3448 72.8213C83.5158 70.3631 79.1772 67.7573 77.4412 68.0458Z" fill="white"/>
</svg>
