<svg width="345" height="56" viewBox="0 0 345 56" fill="none" xmlns="http://www.w3.org/2000/svg">
<rect width="345" height="56" rx="28" fill="#2A2A68"/>
<path d="M161.744 35L153.864 24.48L155.064 24.14V35H152.444V21.38H154.784L162.484 31.66L161.464 31.8V21.38H164.084V35H161.744ZM170.839 35.2C169.866 35.2 169.013 34.9933 168.279 34.58C167.546 34.1533 166.979 33.56 166.579 32.8C166.179 32.04 165.979 31.1467 165.979 30.12C165.979 29.1067 166.179 28.22 166.579 27.46C166.979 26.6867 167.546 26.0867 168.279 25.66C169.013 25.22 169.866 25 170.839 25C171.826 25 172.679 25.22 173.399 25.66C174.133 26.1 174.699 26.7067 175.099 27.48C175.499 28.24 175.699 29.1133 175.699 30.1C175.699 30.2467 175.693 30.3933 175.679 30.54C175.679 30.6733 175.666 30.7867 175.639 30.88H168.119V28.92H173.659L173.259 29.86C173.259 29.0333 173.059 28.36 172.659 27.84C172.273 27.32 171.666 27.06 170.839 27.06C170.119 27.06 169.539 27.2867 169.099 27.74C168.659 28.18 168.439 28.7733 168.439 29.52V30.58C168.439 31.3667 168.659 31.9867 169.099 32.44C169.553 32.88 170.166 33.1 170.939 33.1C171.619 33.1 172.153 32.96 172.539 32.68C172.926 32.4 173.259 32.0533 173.539 31.64L175.359 32.68C174.919 33.4933 174.319 34.12 173.559 34.56C172.813 34.9867 171.906 35.2 170.839 35.2ZM183.008 35L180.708 31.4H181.448L179.168 35H176.168L179.888 29.62L179.908 30.6L176.208 25.22H179.208L181.468 28.8H180.688L182.948 25.22H185.948L182.248 30.6L182.288 29.62L185.988 35H183.008ZM191.461 35.18C190.461 35.18 189.667 34.92 189.081 34.4C188.507 33.8667 188.221 33.02 188.221 31.86V25.34L188.181 25.22L188.721 22.92H190.841V31.44C190.841 31.8667 190.941 32.18 191.141 32.38C191.354 32.5667 191.621 32.66 191.941 32.66C192.154 32.66 192.347 32.6467 192.521 32.62C192.694 32.58 192.847 32.54 192.981 32.5V34.94C192.767 35.02 192.541 35.08 192.301 35.12C192.061 35.16 191.781 35.18 191.461 35.18ZM186.701 27.64V25.22H192.981V27.64H186.701Z" fill="white"/>
</svg>
